<?xml version="1.0" encoding="UTF-8" ?>
<!DOCTYPE svg PUBLIC "-//W3C//DTD SVG 1.1//EN" "http://www.w3.org/Graphics/SVG/1.1/DTD/svg11.dtd">
<svg width="291pt" height="255pt" viewBox="0 0 291 255" version="1.1" xmlns="http://www.w3.org/2000/svg">
<g id="#ffffffff">
</g>
<g id="#111427ff">
<path fill="#111427" opacity="1.00" d=" M 99.88 27.73 C 120.60 14.60 145.54 8.35 169.99 9.88 C 192.36 11.28 214.30 19.13 232.33 32.46 C 248.36 43.96 261.10 59.80 269.53 77.59 C 280.38 100.64 283.43 127.28 278.08 152.18 C 273.17 176.05 260.46 198.20 242.47 214.61 C 223.14 232.65 197.48 243.61 171.12 245.41 C 144.99 247.37 118.25 240.35 96.60 225.56 C 78.27 213.27 63.61 195.68 54.67 175.51 C 48.52 161.75 45.34 146.78 44.58 131.77 C 61.72 131.71 78.86 131.81 96.00 131.72 C 102.70 131.81 107.84 123.93 104.93 117.86 C 103.48 113.83 99.17 111.54 95.04 111.50 C 71.86 111.50 48.68 111.46 25.50 111.53 C 17.09 100.29 12.41 86.44 12.22 72.40 C 38.80 72.12 65.39 72.37 91.97 72.28 C 98.77 72.17 105.69 72.75 112.11 75.11 C 123.47 79.11 133.30 87.42 139.00 98.06 C 145.38 109.65 146.77 123.84 142.73 136.44 C 136.90 156.15 117.55 170.86 96.96 171.00 C 106.20 185.23 120.32 196.18 136.27 201.91 C 154.31 208.41 174.72 207.86 192.46 200.60 C 208.48 194.02 222.17 181.99 230.85 167.01 C 240.38 150.62 243.65 130.68 239.83 112.10 C 235.81 92.04 223.59 73.78 206.58 62.41 C 194.55 54.36 180.32 49.50 165.82 49.04 C 148.14 48.14 130.52 53.94 116.07 63.99 C 110.12 61.24 103.53 60.21 97.03 59.88 C 86.69 59.76 76.34 59.97 65.99 59.79 C 75.12 47.09 86.55 35.96 99.88 27.73 Z" />
</g>
</svg>
